<svg width="32" height="50" viewBox="0 0 32 50" fill="none" xmlns="http://www.w3.org/2000/svg">
<path d="M11.122 40.384V49H10.006V42.868C10.006 42.776 10.008 42.678 10.012 42.574C10.02 42.47 10.028 42.364 10.036 42.256L7.168 47.518C7.068 47.714 6.914 47.812 6.706 47.812H6.526C6.318 47.812 6.166 47.714 6.07 47.518L3.148 42.238C3.172 42.462 3.184 42.672 3.184 42.868V49H2.062V40.384H3.01C3.122 40.384 3.208 40.396 3.268 40.42C3.332 40.44 3.392 40.5 3.448 40.6L6.328 45.76C6.384 45.864 6.436 45.974 6.484 46.09C6.532 46.206 6.578 46.322 6.622 46.438C6.706 46.202 6.804 45.974 6.916 45.754L9.742 40.6C9.794 40.5 9.85 40.44 9.91 40.42C9.974 40.396 10.062 40.384 10.174 40.384H11.122ZM16.8639 45.274C16.8639 45.042 16.8299 44.828 16.7619 44.632C16.6979 44.436 16.6019 44.266 16.4739 44.122C16.3459 43.978 16.1899 43.866 16.0059 43.786C15.8219 43.706 15.6099 43.666 15.3699 43.666C14.8779 43.666 14.4899 43.808 14.2059 44.092C13.9259 44.376 13.7479 44.77 13.6719 45.274H16.8639ZM17.8299 48.13C17.6859 48.298 17.5199 48.444 17.3319 48.568C17.1439 48.688 16.9439 48.786 16.7319 48.862C16.5199 48.938 16.2999 48.994 16.0719 49.03C15.8479 49.066 15.6259 49.084 15.4059 49.084C14.9859 49.084 14.5959 49.014 14.2359 48.874C13.8799 48.73 13.5699 48.522 13.3059 48.25C13.0459 47.974 12.8419 47.634 12.6939 47.23C12.5499 46.822 12.4779 46.354 12.4779 45.826C12.4779 45.402 12.5439 45.008 12.6759 44.644C12.8079 44.276 12.9959 43.956 13.2399 43.684C13.4879 43.412 13.7899 43.198 14.1459 43.042C14.5019 42.886 14.9019 42.808 15.3459 42.808C15.7179 42.808 16.0599 42.87 16.3719 42.994C16.6879 43.114 16.9599 43.29 17.1879 43.522C17.4159 43.754 17.5939 44.04 17.7219 44.38C17.8539 44.72 17.9199 45.108 17.9199 45.544C17.9199 45.724 17.8999 45.846 17.8599 45.91C17.8199 45.97 17.7459 46 17.6379 46H13.6419C13.6539 46.364 13.7059 46.682 13.7979 46.954C13.8899 47.222 14.0159 47.446 14.1759 47.626C14.3399 47.806 14.5339 47.94 14.7579 48.028C14.9819 48.116 15.2319 48.16 15.5079 48.16C15.7679 48.16 15.9919 48.13 16.1799 48.07C16.3719 48.01 16.5359 47.946 16.6719 47.878C16.8119 47.806 16.9279 47.74 17.0199 47.68C17.1159 47.62 17.1999 47.59 17.2719 47.59C17.3679 47.59 17.4419 47.626 17.4939 47.698L17.8299 48.13ZM23.4495 44.044C23.4135 44.088 23.3775 44.124 23.3415 44.152C23.3095 44.176 23.2615 44.188 23.1975 44.188C23.1335 44.188 23.0655 44.164 22.9935 44.116C22.9255 44.064 22.8375 44.01 22.7295 43.954C22.6255 43.894 22.4975 43.84 22.3455 43.792C22.1975 43.74 22.0135 43.714 21.7935 43.714C21.5055 43.714 21.2515 43.766 21.0315 43.87C20.8115 43.974 20.6275 44.122 20.4795 44.314C20.3355 44.506 20.2255 44.74 20.1495 45.016C20.0735 45.292 20.0355 45.602 20.0355 45.946C20.0355 46.302 20.0755 46.62 20.1555 46.9C20.2355 47.176 20.3495 47.41 20.4975 47.602C20.6455 47.79 20.8255 47.934 21.0375 48.034C21.2495 48.13 21.4855 48.178 21.7455 48.178C21.9975 48.178 22.2055 48.148 22.3695 48.088C22.5335 48.024 22.6695 47.956 22.7775 47.884C22.8855 47.812 22.9755 47.746 23.0475 47.686C23.1195 47.622 23.1935 47.59 23.2695 47.59C23.3655 47.59 23.4395 47.626 23.4915 47.698L23.8275 48.13C23.6875 48.302 23.5295 48.448 23.3535 48.568C23.1815 48.688 22.9975 48.786 22.8015 48.862C22.6055 48.938 22.3995 48.994 22.1835 49.03C21.9715 49.066 21.7555 49.084 21.5355 49.084C21.1555 49.084 20.7995 49.014 20.4675 48.874C20.1395 48.734 19.8535 48.53 19.6095 48.262C19.3695 47.994 19.1795 47.666 19.0395 47.278C18.8995 46.886 18.8295 46.442 18.8295 45.946C18.8295 45.494 18.8915 45.076 19.0155 44.692C19.1435 44.308 19.3295 43.978 19.5735 43.702C19.8215 43.422 20.1255 43.204 20.4855 43.048C20.8455 42.888 21.2575 42.808 21.7215 42.808C22.1575 42.808 22.5415 42.878 22.8735 43.018C23.2055 43.158 23.5015 43.356 23.7615 43.612L23.4495 44.044ZM26.0897 43.678C26.3457 43.418 26.6277 43.208 26.9357 43.048C27.2477 42.888 27.6057 42.808 28.0097 42.808C28.3457 42.808 28.6397 42.864 28.8917 42.976C29.1477 43.088 29.3617 43.246 29.5337 43.45C29.7057 43.65 29.8357 43.892 29.9237 44.176C30.0117 44.46 30.0557 44.774 30.0557 45.118V49H28.8797V45.118C28.8797 44.682 28.7797 44.344 28.5797 44.104C28.3797 43.86 28.0737 43.738 27.6617 43.738C27.3617 43.738 27.0797 43.81 26.8157 43.954C26.5557 44.094 26.3137 44.286 26.0897 44.53V49H24.9197V40.144H26.0897V43.678Z" fill="#9499C3"/>
<path d="M25.8801 14.4732H28.6623C28.5774 13.047 28.2636 11.6438 27.733 10.3175L25.2903 11.7297C25.6019 12.5973 25.8064 13.5165 25.8801 14.4732ZM21.0351 3.22473C19.6831 2.58007 18.2315 2.17036 16.7423 2.01311V4.82768C17.7427 4.9584 18.719 5.23279 19.6412 5.64238L21.0351 3.22473ZM24.0133 9.25077L26.4352 7.85115C25.6092 6.63165 24.5885 5.55654 23.4138 4.66892L22.0144 7.09493C22.7774 7.71722 23.4501 8.4428 24.0133 9.25077ZM15.3498 25.8917C12.5459 25.8917 9.85687 24.7766 7.87422 22.7916C5.89157 20.8067 4.77773 18.1146 4.77773 15.3074C4.77773 10.3648 8.16457 6.22354 12.7398 5.06078C13.4292 4.8856 13.9601 4.29464 13.9601 3.58342C13.9601 2.7429 13.2293 2.08093 12.4093 2.26541C6.44811 3.60643 1.99561 8.93582 1.99561 15.3074C1.99542 17.0634 2.34075 18.8022 3.01187 20.4245C3.68298 22.0468 4.66674 23.5209 5.90696 24.7625C7.14718 26.0042 8.61956 26.9891 10.24 27.661C11.8605 28.3328 13.5973 28.6786 15.3512 28.6784C21.4953 28.6784 26.6587 24.5185 28.2115 18.8595C28.4398 18.0277 27.7732 17.2586 26.9106 17.2586C26.2294 17.2586 25.6548 17.7482 25.4562 18.3998C24.1352 22.7355 20.113 25.8917 15.3498 25.8917Z" fill="white"/>
<circle cx="15.5" cy="15.5" r="4.5" fill="white"/>
</svg>
